<?xml version="1.0" encoding="utf-8"?>
<!-- Generator: Adobe Illustrator 24.1.2, SVG Export Plug-In . SVG Version: 6.00 Build 0)  -->
<svg version="1.1" id="Layer_1" xmlns="http://www.w3.org/2000/svg" xmlns:xlink="http://www.w3.org/1999/xlink" x="0px" y="0px"
	 viewBox="0 0 192.3 192.3" style="enable-background:new 0 0 192.3 192.3;" xml:space="preserve">
<style type="text/css">
	.st0{fill:#E2DDC9;}
</style>
<g id="XMLID_31_">
	<path id="XMLID_44_" class="st0" d="M124.1,25.8H67.7c-21.5,0-39,17.5-39,39v56.4c0,21.5,17.5,39,39,39h57.1c21.5,0,39-17.5,39-39
		V64.1C163.1,43.3,145.6,25.8,124.1,25.8z M150.3,121.8c0,14.1-11.4,25.5-25.5,25.5H67c-14.1,0-25.5-11.4-25.5-25.5V64.1
		C41.5,50,52.9,38.6,67,38.6h57.8c14.1,0,25.5,11.4,25.5,25.5V121.8z"/>
	<path id="XMLID_33_" class="st0" d="M95.9,58.7C76.4,58.7,61,74.2,61,93.6s15.4,34.9,34.9,34.9c19.5,0,34.9-15.4,34.9-34.9
		C130.8,74.2,115.4,58.7,95.9,58.7z M95.9,115.8c-12.8,0-22.2-10.1-22.2-22.2c0-12.8,10.1-22.2,22.2-22.2
		c12.8,0,22.2,10.1,22.2,22.2S108,115.8,95.9,115.8z"/>
	<circle id="XMLID_32_" class="st0" cx="132.2" cy="56.7" r="8.1"/>
</g>
</svg>
