<?xml version="1.0" encoding="utf-8"?>
<!-- Generator: Adobe Illustrator 24.1.2, SVG Export Plug-In . SVG Version: 6.00 Build 0)  -->
<svg version="1.1" id="Layer_1" xmlns="http://www.w3.org/2000/svg" xmlns:xlink="http://www.w3.org/1999/xlink" x="0px" y="0px"
	 viewBox="0 0 595.3 841.9" style="enable-background:new 0 0 595.3 841.9;" xml:space="preserve">
<style type="text/css">
	.st0{fill:#E2DDC9;}
</style>
<path class="st0" d="M358.4,367.5c-0.1,0.7-0.3,1.5-0.4,2.2c-0.8,3.1-2.5,5.6-4.7,7.8c-3.7,3.7-7.6,7.1-11.5,10.4
	c-2.3,2-4.7,3.9-7,5.9c-1.1,0.9-2.2,0.9-3.2,0.1c-5.5-4.5-10.9-9-16.1-13.8c-1.8-1.7-3.6-3.3-5-5.3c-2-2.9-3-6.1-2.7-9.6
	c0.4-6.1,5-11.4,11.1-12.6c5.1-1,9.5,0.3,13.2,3.9c0.4,0.4,0.8,0.8,1.2,1.2c0.4-0.4,0.8-0.8,1.1-1.1c3.1-3.1,6.8-4.5,11.2-4.3
	c6.3,0.3,11.9,5.4,12.9,11.6c0.1,0.4,0.1,0.7,0.2,1.1C358.4,365.8,358.4,366.6,358.4,367.5z"/>
</svg>
