<?xml version="1.0" encoding="utf-8"?>
<!-- Generator: Adobe Illustrator 24.1.2, SVG Export Plug-In . SVG Version: 6.00 Build 0)  -->
<svg version="1.1" id="Layer_1" xmlns="http://www.w3.org/2000/svg" xmlns:xlink="http://www.w3.org/1999/xlink" x="0px" y="0px"
	 viewBox="0 0 595.3 841.9" style="enable-background:new 0 0 595.3 841.9;" xml:space="preserve">
<style type="text/css">
	.st0{fill:#E2DDC9;}
</style>
<path class="st0" d="M289.5,363.8c-1-6.3-6.6-11.3-12.9-11.6c-4.4-0.2-8.1,1.2-11.2,4.3c-0.4,0.4-0.7,0.7-1.1,1.1
	c-0.4-0.4-0.8-0.8-1.2-1.2c-3.7-3.6-8.1-4.9-13.2-3.9c-6,1.2-10.6,6.5-11.1,12.6c-0.2,3.5,0.7,6.7,2.7,9.6c1.4,2,3.2,3.7,5,5.3
	c5.2,4.8,10.6,9.4,16.1,13.8c1,0.9,2.2,0.8,3.2-0.1c2.4-2,4.7-3.9,7-5.9c4-3.4,7.9-6.8,11.5-10.4c2.2-2.2,4-4.7,4.7-7.8
	c0.2-0.7,0.3-1.5,0.4-2.2c0-0.9,0-1.7,0-2.6C289.6,364.5,289.6,364.2,289.5,363.8z M282.2,373.4c-2.8,3.1-6,5.8-9.2,8.6
	c-2.7,2.4-5.5,4.7-8.3,7c-0.2,0.1-0.3,0.2-0.5,0.4c-1.5-1.3-3-2.5-4.5-3.8c-3.9-3.4-7.8-6.9-11.6-10.3c-1.5-1.4-2.9-2.9-3.8-4.8
	c-2.5-5.5,0.1-11.7,5.8-13.4c3.6-1.1,6.8-0.3,9.6,2.3c0.9,0.9,1.8,1.8,2.7,2.7c1.2,1.2,2.5,1.2,3.7,0c1.1-1,2.1-2.2,3.2-3.1
	c5.6-4.7,14.1-1.9,15.6,5.2C285.7,367.7,284.6,370.8,282.2,373.4z"/>
</svg>
