<?xml version="1.0" encoding="utf-8"?>
<!-- Generator: Adobe Illustrator 24.1.2, SVG Export Plug-In . SVG Version: 6.00 Build 0)  -->
<svg version="1.1" id="Layer_1" xmlns="http://www.w3.org/2000/svg" xmlns:xlink="http://www.w3.org/1999/xlink" x="0px" y="0px"
	 viewBox="0 0 600 500" style="enable-background:new 0 0 600 500;" xml:space="preserve">
<style type="text/css">
	.st0{fill:#E2DDC9;}
</style>
<path class="st0" d="M599.2,137.8c-11.8-74.4-78-133.5-152.4-137c-52-2.4-95.7,14.2-132.3,50.8c-4.7,4.7-8.3,8.3-13,13
	c-4.7-4.7-9.4-9.4-14.2-14.2C243.7,7.8,191.7-7.5,131.4,4.3C60.6,18.5,6.2,81.1,0.3,153.1c-2.4,41.3,8.3,79.1,31.9,113.4
	c16.5,23.6,37.8,43.7,59.1,62.6c61.4,56.7,125.2,111,190.2,163c11.8,10.6,26,9.4,37.8-1.2c28.4-23.6,55.5-46.1,82.7-69.7
	c47.3-40.2,93.3-80.3,135.8-122.9c26-26,47.3-55.5,55.5-92.1c2.4-8.3,3.5-17.7,4.7-26c0-10.6,0-20.1,0-30.7
	C600.4,146,600.4,142.5,599.2,137.8z M513,251.2c-33.1,36.6-70.9,68.5-108.7,101.6c-31.9,28.4-65,55.5-98,82.7
	c-2.4,1.2-3.5,2.4-5.9,4.7c-17.7-15.4-35.4-29.5-53.2-44.9c-46.1-40.2-92.1-81.5-137-121.7c-17.7-16.5-34.3-34.3-44.9-56.7
	c-29.5-65,1.2-138.2,68.5-158.3c42.5-13,80.3-3.5,113.4,27.2c10.6,10.6,21.3,21.3,31.9,31.9c14.2,14.2,29.5,14.2,43.7,0
	c13-11.8,24.8-26,37.8-36.6c66.2-55.5,166.6-22.4,184.3,61.4C554.3,183.8,541.3,220.5,513,251.2z"/>
</svg>
