<?xml version="1.0" encoding="utf-8"?>
<!-- Generator: Adobe Illustrator 24.1.2, SVG Export Plug-In . SVG Version: 6.00 Build 0)  -->
<svg version="1.1" id="Logo" xmlns="http://www.w3.org/2000/svg" xmlns:xlink="http://www.w3.org/1999/xlink" x="0px" y="0px"
	 viewBox="0 0 841.9 718.3" style="enable-background:new 0 0 841.9 718.3;" xml:space="preserve">
<style type="text/css">
	.st0{fill:#E2DDC9;}
</style>
<g>
	<path class="st0" d="M419.5,42.5C255.3,42.5,121,176.8,121,341c0,122.4,74.6,226.9,179.1,274.6c0-20.9,0-47.8,6-68.7
		c6-23.9,38.8-161.2,38.8-161.2s-9-17.9-9-47.8c0-44.8,23.9-77.6,56.7-77.6c26.9,0,38.8,20.9,38.8,44.8c0,26.9-17.9,68.7-26.9,107.5
		c-6,32.8,14.9,56.7,47.8,56.7c56.7,0,95.5-71.6,95.5-158.2c0-65.7-44.8-116.4-125.4-116.4c-89.6,0-146.3,68.7-146.3,143.3
		c0,26.9,6,44.8,20.9,59.7c6,6,6,9,3,17.9c0,6-3,17.9-6,23.9s-9,11.9-14.9,6c-41.8-17.9-59.7-62.7-59.7-113.4
		c0-86.6,71.6-188.1,214.9-188.1c113.4,0,188.1,83.6,188.1,170.1c0,116.4-65.7,206-161.2,206c-32.8,0-62.7-17.9-71.6-35.8
		c0,0-17.9,68.7-20.9,83.6c-6,23.9-17.9,47.8-29.9,65.7c26.9,9,53.7,11.9,83.6,11.9C586.6,645.5,721,511.2,721,347
		C718,176.8,583.6,42.5,419.5,42.5z"/>
</g>
</svg>
