<?xml version="1.0" encoding="utf-8"?>
<!-- Generator: Adobe Illustrator 24.1.2, SVG Export Plug-In . SVG Version: 6.00 Build 0)  -->
<svg version="1.1" id="Layer_1" xmlns="http://www.w3.org/2000/svg" xmlns:xlink="http://www.w3.org/1999/xlink" x="0px" y="0px"
	 viewBox="0 0 70.9 70.9" style="enable-background:new 0 0 70.9 70.9;" xml:space="preserve">
<style type="text/css">
	.st0{fill:#B8B29E;stroke:#B8B29E;stroke-width:2;stroke-linejoin:round;stroke-miterlimit:10;}
</style>
<g>
	<path class="st0" d="M60.7,17.3H10.2c-1.2,0-2.2-1-2.2-2.2v0c0-1.2,1-2.2,2.2-2.2h50.6c1.2,0,2.3,1,2.3,2.2v0
		C63,16.3,62,17.3,60.7,17.3z"/>
	<path class="st0" d="M60.7,37.7H10.2c-1.2,0-2.2-1-2.2-2.2v0c0-1.2,1-2.2,2.2-2.2h50.6c1.2,0,2.3,1,2.3,2.2v0
		C63,36.7,62,37.7,60.7,37.7z"/>
	<path class="st0" d="M60.7,58.1H10.2c-1.2,0-2.2-1-2.2-2.2v0c0-1.2,1-2.3,2.2-2.3h50.6c1.2,0,2.3,1,2.3,2.3v0
		C63,57.1,62,58.1,60.7,58.1z"/>
</g>
</svg>
