<?xml version="1.0" encoding="utf-8"?>
<!-- Generator: Adobe Illustrator 24.1.2, SVG Export Plug-In . SVG Version: 6.00 Build 0)  -->
<svg version="1.1" id="Layer_1" xmlns="http://www.w3.org/2000/svg" xmlns:xlink="http://www.w3.org/1999/xlink" x="0px" y="0px"
	 viewBox="0 0 600 546" style="enable-background:new 0 0 600 546;" xml:space="preserve">
<style type="text/css">
	.st0{fill:#E2DDC9;}
</style>
<g>
	<path class="st0" d="M597,128.3c-3.9,14.9-7.8,29.7-11.7,44.6c-14,56.7-28.1,113.6-42.1,170.3c-3.7,15.1-10.9,20.6-26.2,20.6
		c-112.7,0-225.4,0-338.1,0c-15.9,0-22.8-5.4-26.5-20.9C129.3,246.3,106.1,149.6,83,52.9c-2-8.2-1.9-8.2-10.5-8.2
		c-16,0-32.1,0.2-48.1-0.1C13.3,44.4,4.5,36,3.2,25.2C1.8,14.7,8.6,4.4,19.1,1.5c2.7-0.8,5.7-0.9,8.6-0.9c22.9-0.1,45.6-0.1,68.5,0
		c13.8,0,21.1,5.7,24.4,19.1c6.1,25.2,12.1,50.3,18.2,75.5c0.4,1.9,1,3.7,1.6,6.1c2.7,0,5.3,0,8.1,0c140.4,0,280.7,0,421.1,0
		c6.4,0,13.3-0.3,18.1,4.5c3.8,3.8,6.3,8.9,9.4,13.5C597,122.1,597,125.3,597,128.3z M546.2,146c-131.9,0-263.3,0-395.4,0
		c13.8,58.2,27.7,115.8,41.5,173.6c1.7,0.1,2.8,0.2,4,0.2c100.7,0,201.3,0,302.1,0.1c3.8,0,5.2-1.2,6.1-4.9
		c10.2-41.8,20.6-83.5,30.9-125.3C539,175.2,542.6,160.8,546.2,146z"/>
	<path class="st0" d="M278.4,469.8c0.2,40.6-32.7,73.7-73.4,74c-40.9,0.3-74.4-32.5-74.6-73.4c-0.2-41.1,32.6-74.2,73.6-74.4
		C245,395.8,278.2,428.8,278.4,469.8z M233.9,469.9c0-16.2-13.2-29.5-29.4-29.5c-16.1-0.1-29.5,13.2-29.7,29.3
		c-0.2,16.2,13.5,29.9,29.7,29.8C220.7,499.5,233.9,486.2,233.9,469.9z"/>
	<path class="st0" d="M399.4,470.1c-0.1-40.9,33-74,73.9-74c40.7,0,73.7,32.8,73.8,73.5c0.2,41.1-32.7,74.2-73.7,74.3
		C432.5,544,399.5,511.1,399.4,470.1z M443.7,469.8c0,16.1,13.2,29.5,29.3,29.7c16.2,0.1,29.9-13.6,29.8-29.8
		c-0.1-16-13.6-29.4-29.7-29.3C457.1,440.4,443.9,453.7,443.7,469.8z"/>
</g>
</svg>
