<?xml version="1.0" encoding="utf-8"?>
<!-- Generator: Adobe Illustrator 24.1.2, SVG Export Plug-In . SVG Version: 6.00 Build 0)  -->
<svg version="1.1" id="Layer_1" xmlns="http://www.w3.org/2000/svg" xmlns:xlink="http://www.w3.org/1999/xlink" x="0px" y="0px"
	 viewBox="0 0 575 489" style="enable-background:new 0 0 575 489;" xml:space="preserve">
<style type="text/css">
	.st0{fill:#E2DDC9;}
</style>
<path class="st0" d="M286.5,94C175.7,94,86.9,184.3,86.9,296.4c0,100.2,72,182.7,165.8,198.9V358.5h-49.4v-57.8h49.4v-69.1
	c1.4-21.9,11.3-31.7,11.3-31.7c18.3-23.3,42.3-25.4,42.3-25.4c40.2-5.6,67,2.8,67,2.8l0.7,50.1h-29.6c-24.7,0-28.2,19-28.2,19v52.9
	h54.3c5.6,0,4.9,0.7,4.9,0.7l-8.5,57.1h-50.8v137.6c96.6-14.1,170.7-98.8,170.7-199.6C486.1,184.3,396.6,94,286.5,94z"/>
</svg>
