<?xml version="1.0" encoding="utf-8"?>
<!-- Generator: Adobe Illustrator 24.1.2, SVG Export Plug-In . SVG Version: 6.00 Build 0)  -->
<svg version="1.1" id="Layer_1" xmlns="http://www.w3.org/2000/svg" xmlns:xlink="http://www.w3.org/1999/xlink" x="0px" y="0px"
	 viewBox="0 0 600 500" style="enable-background:new 0 0 600 500;" xml:space="preserve">
<style type="text/css">
	.st0{fill:#E2DDC9;}
</style>
<path class="st0" d="M599.2,137.8c-11.8-74.4-78-133.5-152.4-137c-52-2.4-95.7,14.2-132.3,50.8c-4.7,4.7-8.3,8.3-13,13
	c-4.7-4.7-9.4-9.4-14.2-14.2C243.7,7.8,191.7-7.5,131.4,4.3C60.6,18.5,6.2,81.1,0.3,153.1c-2.4,41.3,8.3,79.1,31.9,113.4
	c16.5,23.6,37.8,43.7,59.1,62.6c61.4,56.7,125.2,111,190.2,163c11.8,10.6,26,9.5,37.8-1.2c28.4-23.6,55.5-46.1,82.7-69.7
	c47.3-40.2,93.3-80.3,135.8-122.9c26-26,47.3-55.5,55.5-92.1c2.4-8.3,3.5-17.7,4.7-26c0-10.6,0-20.1,0-30.7
	C600.4,146,600.4,142.5,599.2,137.8z"/>
</svg>
