<?xml version="1.0" encoding="utf-8"?>
<!-- Generator: Adobe Illustrator 24.1.2, SVG Export Plug-In . SVG Version: 6.00 Build 0)  -->
<svg version="1.1" id="Layer_1" xmlns="http://www.w3.org/2000/svg" xmlns:xlink="http://www.w3.org/1999/xlink" x="0px" y="0px"
	 viewBox="0 0 70.9 70.9" style="enable-background:new 0 0 70.9 70.9;" xml:space="preserve">
<style type="text/css">
	.st0{fill:#B8B29E;}
</style>
<g>
	<g>
		<path class="st0" d="M10.5,18c-1.2,0-2.2-1-2.2-2.2v-1c0-1.2,1-2.2,2.2-2.2h49.8c1.2,0,2.2,1,2.2,2.2v1c0,1.2-1,2.2-2.2,2.2H10.5z
			"/>
		<path class="st0" d="M60.3,12.8c1.1,0,1.9,0.9,1.9,1.9v1c0,1.1-0.9,1.9-1.9,1.9H10.5c-1.1,0-1.9-0.9-1.9-1.9v-1
			c0-1.1,0.9-1.9,1.9-1.9H60.3 M60.3,12.3H10.5c-1.3,0-2.4,1.1-2.4,2.4v1c0,1.3,1.1,2.4,2.4,2.4h49.8c1.3,0,2.4-1.1,2.4-2.4v-1
			C62.7,13.4,61.7,12.3,60.3,12.3L60.3,12.3z"/>
	</g>
	<g>
		<path class="st0" d="M10.5,38.1c-1.2,0-2.2-1-2.2-2.2v-1c0-1.2,1-2.2,2.2-2.2h49.8c1.2,0,2.2,1,2.2,2.2v1c0,1.2-1,2.2-2.2,2.2
			H10.5z"/>
		<path class="st0" d="M60.3,33c1.1,0,1.9,0.9,1.9,1.9v1c0,1.1-0.9,1.9-1.9,1.9H10.5c-1.1,0-1.9-0.9-1.9-1.9v-1
			c0-1.1,0.9-1.9,1.9-1.9H60.3 M60.3,32.5H10.5c-1.3,0-2.4,1.1-2.4,2.4v1c0,1.3,1.1,2.4,2.4,2.4h49.8c1.3,0,2.4-1.1,2.4-2.4v-1
			C62.7,33.6,61.7,32.5,60.3,32.5L60.3,32.5z"/>
	</g>
	<g>
		<path class="st0" d="M10.5,58.3c-1.2,0-2.2-1-2.2-2.2v-1c0-1.2,1-2.2,2.2-2.2h49.8c1.2,0,2.2,1,2.2,2.2v1c0,1.2-1,2.2-2.2,2.2
			H10.5z"/>
		<path class="st0" d="M60.3,53.1c1.1,0,1.9,0.9,1.9,1.9v1c0,1.1-0.9,1.9-1.9,1.9H10.5c-1.1,0-1.9-0.9-1.9-1.9v-1
			c0-1.1,0.9-1.9,1.9-1.9H60.3 M60.3,52.6H10.5c-1.3,0-2.4,1.1-2.4,2.4v1c0,1.3,1.1,2.4,2.4,2.4h49.8c1.3,0,2.4-1.1,2.4-2.4v-1
			C62.7,53.7,61.7,52.6,60.3,52.6L60.3,52.6z"/>
	</g>
</g>
</svg>
