<?xml version="1.0" encoding="utf-8"?>
<!-- Generator: Adobe Illustrator 24.1.2, SVG Export Plug-In . SVG Version: 6.00 Build 0)  -->
<svg version="1.1" id="Layer_1" xmlns="http://www.w3.org/2000/svg" xmlns:xlink="http://www.w3.org/1999/xlink" x="0px" y="0px"
	 viewBox="0 0 566.9 566.9" style="enable-background:new 0 0 566.9 566.9;" xml:space="preserve">
<style type="text/css">
	.st0{fill:#FFFFFF;}
	.st1{fill:#181818;}
	.st2{fill:none;stroke:#181818;stroke-width:13;stroke-miterlimit:10;}
</style>
<g>
	<path class="st0" d="M283.5,557c-73.1,0-141.8-28.5-193.4-80.1S9.9,356.5,9.9,283.5C9.9,210.4,38.4,141.7,90,90
		S210.4,9.9,283.5,9.9c73.1,0,141.8,28.5,193.4,80.1S557,210.4,557,283.5c0,73.1-28.5,141.8-80.1,193.4S356.5,557,283.5,557z"/>
	<path class="st1" d="M283.5,10.4c36.9,0,72.6,7.2,106.3,21.5c32.5,13.8,61.7,33.4,86.8,58.5s44.8,54.3,58.5,86.8
		c14.2,33.7,21.5,69.4,21.5,106.3s-7.2,72.6-21.5,106.3c-13.8,32.5-33.4,61.7-58.5,86.8c-25.1,25.1-54.3,44.8-86.8,58.5
		c-33.7,14.2-69.4,21.5-106.3,21.5s-72.6-7.2-106.3-21.5c-32.5-13.8-61.7-33.4-86.8-58.5c-25.1-25.1-44.8-54.3-58.5-86.8
		c-14.2-33.7-21.5-69.4-21.5-106.3s7.2-72.6,21.5-106.3c13.8-32.5,33.4-61.7,58.5-86.8s54.3-44.8,86.8-58.5
		C210.8,17.6,246.6,10.4,283.5,10.4 M283.5,9.4C132.1,9.4,9.4,132.1,9.4,283.5s122.7,274.1,274.1,274.1s274.1-122.7,274.1-274.1
		S434.8,9.4,283.5,9.4L283.5,9.4z"/>
</g>
<g>
	<path class="st1" d="M280.3,484.1c-7-3.9-8.2-5.4-9.5-11.6c-6.1-1.2-12.3-1.4-17.7-3.5c-12.3-4.6-19-14.2-19.7-27.2
		c-0.5-9.3-1.5-18.9,2.9-27.8c0.3-0.6-0.2-2-0.7-2.6c-6.4-6.9-9.4-15.2-8.6-24.4c0.7-8-2-12.6-9-17c-40.5-25.9-61-74.4-52.1-121.5
		c9.1-47.9,46-85.2,93.5-94.8c67-13.4,131.9,31.4,141.3,99.3c7,50.3-12,90-54,118.2c-5,3.5-7.5,6.8-7,12.9
		c0.9,10.3-1.5,19.7-8.8,27.4c-0.5,0.6-0.5,2.2-0.2,3c4.3,10.9,3.9,22.2,1.7,33.2c-2.7,13.5-15.4,23-29.2,23.5c-2.2,0.1-4.4,0-7,0
		c-0.5,6.3-4.2,10.2-9.6,12.6C284.5,484.1,282.4,484.1,280.3,484.1z M283.5,396.4c8,0,15.9,0,23.9,0c5.1,0,7.3-2.3,7.4-7.4
		c0.1-4.4-0.2-8.9,0.3-13.3c1.5-11.2,8.1-18.7,17.6-24.5c32.8-20.2,50.3-58.3,43.8-95.2c-8.8-50.3-53-83.6-103.9-78.3
		c-56.6,5.9-95.2,62.2-80.3,117.3c6.6,24.6,20.8,43.6,42.6,56.8c9.3,5.7,15.4,13.3,16.9,24.1c0.6,4.4,0.3,8.9,0.3,13.3
		c0.1,5.1,2.3,7.4,7.4,7.4C267.5,396.4,275.5,396.4,283.5,396.4z M283.5,421.4c-5.9,0-11.7,0-17.6,0c-5.1,0-7.3,2.3-7.4,7.4
		c0,3.6-0.1,7,0,10.6c0.1,4.5,2.4,6.9,6.7,7c12.3,0.1,24.6,0.1,36.9,0c4.2,0,6.5-2.5,6.6-6.7c0.1-3.7,0.1-7.3,0-11
		c-0.1-5.1-2.3-7.3-7.4-7.4C295.2,421.4,289.3,421.4,283.5,421.4z"/>
	<path class="st1" d="M296,104.7c0,3.1,0.1,6.3,0,9.4c-0.2,7.1-5.7,12.5-12.5,12.5s-12.5-5.3-12.6-12.4c-0.1-6.4-0.1-12.8,0-19.2
		c0.2-7,5.8-12.4,12.7-12.3c6.7,0.1,12.1,5.3,12.4,12.1C296.1,98.2,296,101.4,296,104.7z"/>
	<path class="st1" d="M117.6,258.3c3.1,0,6.3-0.1,9.4,0c7,0.2,12.4,5.9,12.3,12.7c-0.1,6.7-5.3,12.1-12.3,12.4
		c-6.5,0.2-13.1,0.2-19.6,0c-6.8-0.2-12-5.8-12-12.5s5.2-12.3,12-12.6C110.8,258.2,114.1,258.3,117.6,258.3z"/>
	<path class="st1" d="M449.6,283.5c-3.2,0-6.5,0.1-9.8,0c-6.8-0.3-12-5.8-12-12.5s5.1-12.4,11.9-12.6c6.7-0.2,13.3-0.2,20,0
		c6.7,0.2,11.9,6,11.9,12.6c-0.1,6.5-5.2,11.9-11.8,12.4C456.4,283.6,453,283.5,449.6,283.5z"/>
	<path class="st1" d="M420.8,394.6c-0.7,5.6-3,9.4-7.6,11.7c-4.7,2.3-9.6,1.9-13.5-1.7c-5.1-4.6-9.9-9.5-14.7-14.7
		c-4.5-4.9-4.1-12.4,0.6-17.1c4.6-4.6,12.1-5,17.1-0.5c5,4.6,9.8,9.4,14.3,14.5C418.8,388.9,419.5,392,420.8,394.6z"/>
	<path class="st1" d="M159.7,408.2c-5.6-0.7-9.4-3-11.6-7.7c-2.2-4.7-1.9-9.6,1.8-13.5c4.7-5.1,9.5-9.9,14.7-14.7
		c4.9-4.5,12.5-4,17,0.7c4.6,4.7,4.9,12.1,0.4,17.1c-4.6,5-9.4,9.8-14.5,14.3C165.4,406.2,162.3,406.9,159.7,408.2z"/>
	<path class="st1" d="M146.3,147c0.6-5.4,3-9.4,7.6-11.5s9.4-1.9,13.2,1.6c5.3,4.8,10.4,9.8,15.2,15.2c4.3,4.8,3.6,12.1-0.9,16.7
		c-4.6,4.5-11.9,5-16.7,0.6c-5.2-4.7-10.2-9.7-14.9-15C147.9,152.7,147.4,149.6,146.3,147z"/>
	<path class="st1" d="M407.4,133.7c5.4,0.6,9.4,3,11.5,7.6c2.1,4.6,1.9,9.4-1.6,13.2c-4.8,5.3-9.8,10.4-15.2,15.2
		c-4.8,4.3-12.1,3.6-16.7-0.9c-4.5-4.6-5-11.8-0.6-16.7c4.7-5.2,9.7-10.3,15-14.9C401.7,135.4,404.7,134.9,407.4,133.7z"/>
	<path class="st1" d="M284.2,201.7c28.6,1.7,50,15.1,62.4,41.7c3.5,7.2,0.8,14.6-5.7,17.6c-6.8,3.1-13.7,0.1-17.3-7.4
		c-8.6-18.3-25.1-27.9-45.2-26.1c-7.3,0.6-13.2-4-14.1-11c-0.9-6.8,3.7-12.8,10.7-13.9C277.9,202.1,280.7,202,284.2,201.7z"/>
	<path class="st1" d="M332.7,311.2c-7,0-12.5-5.3-12.6-12.3c-0.1-7.1,5.4-12.7,12.6-12.7c6.9,0,12.4,5.6,12.5,12.5
		C345.3,305.5,339.6,311.1,332.7,311.2z"/>
</g>
<circle class="st2" cx="283.5" cy="283.5" r="248.7"/>
</svg>
